# xmcd
#
# Track frame offsets: 
#        150
#        13740
#        20615
#        45392
#        52587
#        76990
#        94762
#        106202
#        115667
#        135220
#        157432
#
# Disc length: 2244 seconds
#
# Revision: 13
# Processed by: cddbd v1.5.2PL0 Copyright (c) Steve Scherf et al.
# Submitted via: ExactAudioCopy v1.3
#
DISCID=7a08c20b
DTITLE=小島麻由美 - My name is Blue
DYEAR=2001
DGENRE=Jazz
TTITLE0=甘い恋 ( Album Version )
TTITLE1=Doo-bee-doo-goo (scat)
TTITLE2=エレクトラ
TTITLE3=Study in A-minor (inst.)
TTITLE4=黒猫
TTITLE5=背後に気をつけろ!
TTITLE6=星に願いを
TTITLE7=ブルーのテーマ ( Scat )
TTITLE8=ひまわり
TTITLE9=あの娘はあぶないよ
TTITLE10=わいわいわい ( Album Ver.)
EXTD=YEAR: 2001
EXTT0=
EXTT1=
EXTT2=
EXTT3=
EXTT4=
EXTT5=
EXTT6=
EXTT7=
EXTT8=
EXTT9=
EXTT10=
PLAYORDER=
